<?xml version="1.0" encoding="UTF-8"?>
<svg width="32px" height="32px" viewBox="0 0 32 32" version="1.1" xmlns="http://www.w3.org/2000/svg" xmlns:xlink="http://www.w3.org/1999/xlink">
    <title>laravel</title>
    <g id="laravel" stroke="none" stroke-width="1" fill="none" fill-rule="evenodd">
        <g id="logomark.min" transform="translate(2.000000, 1.000000)" fill="#FF2D20">
            <path d="M28.6303846,6.67153846 C28.6410067,6.71085388 28.6465385,6.75139045 28.6465385,6.79211538 L28.6465385,13.1221154 C28.6465385,13.2874888 28.5580709,13.4402267 28.4146154,13.5225 L23.1017308,16.5813462 L23.1017308,22.6442308 C23.1017308,22.8092308 23.0140385,22.9615385 22.8709615,23.0446154 L11.7807692,29.4288462 C11.7553846,29.4432692 11.7276923,29.4525 11.7,29.4623077 C11.6896154,29.4657692 11.6798077,29.4721154 11.6688462,29.475 C11.5913215,29.4954154 11.5098323,29.4954154 11.4323077,29.475 C11.4196154,29.4715385 11.4080769,29.4646154 11.3959615,29.46 C11.3705769,29.4507692 11.3440385,29.4426923 11.3198077,29.4288462 L0.231923077,23.0446154 C0.0885549325,22.9622544 0,22.8095721 0,22.6442308 L0,3.65423077 C0,3.61269231 0.00576923077,3.57230769 0.0161538462,3.53307692 C0.0196153846,3.51980769 0.0276923077,3.50769231 0.0323076923,3.49442308 C0.0409615385,3.47019231 0.0490384615,3.44538462 0.0617307692,3.42288462 C0.0703846154,3.40788462 0.0830769231,3.39576923 0.0934615385,3.38192308 C0.106730769,3.36346154 0.118846154,3.34442308 0.134423077,3.32826923 C0.147692308,3.315 0.165,3.30519231 0.18,3.29365385 C0.196730769,3.27980769 0.211730769,3.26480769 0.230769231,3.25384615 L0.231346154,3.25384615 L5.77557692,0.0617307692 C5.9184409,-0.020477873 6.0942514,-0.020477873 6.23711538,0.0617307692 L11.7813462,3.25384615 L11.7825,3.25384615 C11.8009615,3.26538462 11.8165385,3.27980769 11.8332692,3.29307692 C11.8482692,3.30461538 11.865,3.315 11.8782692,3.32769231 C11.8944231,3.34442308 11.9059615,3.36346154 11.9198077,3.38192308 C11.9296154,3.39576923 11.9428846,3.40788462 11.9509615,3.42288462 C11.9642308,3.44596154 11.9717308,3.47019231 11.9809615,3.49442308 C11.9855769,3.50769231 11.9936538,3.51980769 11.9971154,3.53365385 C12.0077375,3.57296926 12.0131682,3.61350583 12.0132692,3.65423077 L12.0132692,15.5151923 L16.6332692,12.855 L16.6332692,6.79153846 C16.6332692,6.75115385 16.6390385,6.71019231 16.6494231,6.67153846 C16.6534615,6.65769231 16.6609615,6.64557692 16.6655769,6.63230769 C16.6748077,6.60807692 16.6828846,6.58326923 16.6955769,6.56076923 C16.7042308,6.54576923 16.7169231,6.53365385 16.7267308,6.51980769 C16.7405769,6.50134615 16.7521154,6.48230769 16.7682692,6.46615385 C16.7815385,6.45288462 16.7982692,6.44307692 16.8132692,6.43153846 C16.8305769,6.41769231 16.8455769,6.40269231 16.8640385,6.39173077 L16.8646154,6.39173077 L22.4094231,3.19961538 C22.5522554,3.11728829 22.7281292,3.11728829 22.8709615,3.19961538 L28.4151923,6.39173077 C28.4348077,6.40326923 28.4498077,6.41769231 28.4671154,6.43096154 C28.4815385,6.4425 28.4982692,6.45288462 28.5115385,6.46557692 C28.5276923,6.48230769 28.5392308,6.50134615 28.5530769,6.51980769 C28.5634615,6.53365385 28.5761538,6.54576923 28.5842308,6.56076923 C28.5975,6.58326923 28.605,6.60807692 28.6142308,6.63230769 C28.6194231,6.64557692 28.6269231,6.65769231 28.6303846,6.67153846 Z M27.7223077,12.855 L27.7223077,7.59115385 L25.7821154,8.70807692 L23.1017308,10.2513462 L23.1017308,15.5151923 L27.7228846,12.855 L27.7223077,12.855 Z M22.1780769,22.3771154 L22.1780769,17.1098077 L19.5415385,18.6155769 L12.0126923,22.9125 L12.0126923,28.2294231 L22.1780769,22.3771154 Z M0.924230769,4.45326923 L0.924230769,22.3771154 L11.0884615,28.2288462 L11.0884615,22.9130769 L5.77846154,19.9078846 L5.77673077,19.9067308 L5.77442308,19.9055769 C5.75653846,19.8951923 5.74153846,19.8801923 5.72480769,19.8675 C5.71038462,19.8559615 5.69365385,19.8467308 5.68096154,19.8340385 L5.67980769,19.8323077 C5.66480769,19.8178846 5.65442308,19.8 5.64173077,19.7838462 C5.63019231,19.7682692 5.61634615,19.755 5.60711538,19.7388462 L5.60653846,19.7371154 C5.59615385,19.7198077 5.58980769,19.6990385 5.58230769,19.6794231 C5.57480769,19.6621154 5.565,19.6459615 5.56038462,19.6275 L5.56038462,19.6269231 C5.55461538,19.605 5.55346154,19.5819231 5.55115385,19.5594231 C5.54884615,19.5421154 5.54423077,19.5248077 5.54423077,19.5075 L5.54423077,19.5063462 L5.54423077,7.11346154 L2.86442308,5.56961538 L0.924230769,4.45384615 L0.924230769,4.45326923 Z M6.00692308,0.995192308 L1.3875,3.65423077 L6.00576923,6.31326923 L10.6246154,3.65365385 L6.00576923,0.995192308 L6.00692308,0.995192308 Z M8.40923077,17.5898077 L11.0890385,16.0471154 L11.0890385,4.45326923 L9.14884615,5.57019231 L6.46846154,7.11346154 L6.46846154,18.7073077 L8.40923077,17.5898077 Z M22.6401923,4.13307692 L18.0213462,6.79211538 L22.6401923,9.45115385 L27.2584615,6.79153846 L22.6401923,4.13307692 Z M22.1780769,10.2513462 L19.4976923,8.70807692 L17.5575,7.59115385 L17.5575,12.855 L20.2373077,14.3976923 L22.1780769,15.5151923 L22.1780769,10.2513462 Z M11.55,22.1134615 L18.3248077,18.2457692 L21.7113462,16.3130769 L17.0959615,13.6557692 L11.7819231,16.7151923 L6.93865385,19.5034615 L11.55,22.1134615 Z" id="Shape"></path>
        </g>
    </g>
</svg>