<?xml version="1.0" encoding="UTF-8"?>
<svg width="32px" height="32px" viewBox="0 0 32 32" version="1.1" xmlns="http://www.w3.org/2000/svg" xmlns:xlink="http://www.w3.org/1999/xlink">
    <title>swift</title>
    <g id="swift" stroke="none" stroke-width="1" fill="none" fill-rule="evenodd">
        <path d="M29.3320417,22.1440601 C29.3310425,22.1427755 29.3301147,22.1418477 29.3290442,22.1406344 C29.3759336,21.9810532 29.4243219,21.8224712 29.4653591,21.6588933 C31.2246064,14.6498092 26.9309723,6.36314753 19.6652451,2 C22.849233,6.31632943 24.2570591,11.5443986 23.006245,16.1164434 C22.8946951,16.5242462 22.7605926,16.9156341 22.6123591,17.2960312 C22.4514932,17.1903336 22.2488051,17.0703622 21.9766035,16.9202731 C21.9766035,16.9202731 14.7491301,12.4577798 6.91573336,4.56471857 C6.71019046,4.35753418 11.0928217,10.828781 16.066603,16.0836136 C13.7232712,14.7684959 7.19271668,10.016958 3.05844973,6.23304173 C3.56638334,7.08012112 4.17052244,7.89579811 4.83461155,8.68107189 C8.28708986,13.0594924 12.7895498,18.4617735 18.1836948,22.6101001 C14.3937122,24.9294518 9.03839196,25.1098015 3.70633806,22.6125267 C2.38750919,21.9944706 1.14768587,21.2487353 0,20.4014418 C2.25704655,24.0116457 5.73321939,27.126477 9.96404868,28.9448893 C15.0094844,31.1131527 20.0268008,30.9661325 23.7636848,28.9804311 L23.7607587,28.9847132 C23.7778159,28.9739365 23.7995121,28.9621606 23.8172116,28.9512412 C23.9706551,28.8687385 24.1229566,28.7847371 24.2719039,28.6960254 C26.0673353,27.7640882 29.613664,26.8185909 31.5171482,30.5222169 C31.9833309,31.428604 32.9739335,26.6251807 29.3320417,22.1440601 Z" id="Path" fill="#F05138" fill-rule="nonzero"></path>
    </g>
</svg>